<?xml version="1.0" encoding="UTF-8"?>
<svg id="Layer_1" data-name="Layer 1" xmlns="http://www.w3.org/2000/svg" viewBox="0 0 1133.86 1133.86">
  <defs>
    <style>
      .cls-1 {
        fill: #a0fbfe;
      }

      .cls-2 {
        fill: none;
        stroke: #c7c7c7;
        stroke-miterlimit: 10;
        stroke-width: 16px;
      }

      .cls-3 {
        fill: #9e9e9e;
      }

      .cls-4 {
        fill: #c7c7c7;
      }
    </style>
  </defs>
  <g>
    <path class="cls-4" d="M1004.59,871.95c-68.73,53.84-148.78,94.21-227.14,132.04-134.54,64.95-279.19,127.4-430.86,129.86-49.47.81-79.91-50.14-103.74-85.9-32.17-48.24-60.91-98.89-85.74-151.29-20.49-43.24-43.69-100.29-11.44-143.85,18.96-25.6,51.25-35.54,79.6-46.71,153.52-60.57,308.23-139.18,471.56-172.67,5.77-1.23,11.46-2.13,17.09-2.77,67.56-7.62,124.35,26.66,183.43,52.98,61.99,27.62,142.78,65.27,178.3,126.23,5.73,9.84,11.51,19.8,14.85,30.68,17.47,56.85-48.23,101.89-85.9,131.41Z"/>
    <g>
      <path class="cls-4" d="M630.26.03c53.99.84,90.46,25.93,107.5,76.94,19.84,59.4,23.49,122.97,21.49,185.14-1.53,47.69-.95,99.36-11.48,146.02-11.57,51.27-48.47,73.47-91.94,95.98-81.94,42.45-167.61,77.21-253.9,109.68-84.21,31.7-168.44,63.73-256.25,84.11-11.72,2.72-27.9-.75-37.88-6.9-36.01-22.19-36.3-73.15-41.05-110.17-12.2-95.26-34.08-195.39-23.44-291.72,3.51-31.76,12.72-66.84,35.79-89.58,25.38-25.02,57.2-43.07,88.85-58.86,6.88-3.44,18.33-6.79,27.85-11.14,26.49-12.12,56.2-23.31,83.55-33.43,69.18-25.62,138.09-52.57,209.55-71.28C530.08,14.03,582.18-.72,630.26.03ZM607,58.58c-40.81,1.92-102.61,23.49-143.79,34.77-89.07,24.39-339.76,94.04-360.8,196.29-8.94,43.42,6.11,233.93,16.89,281.41,13.53,59.55,32.93,73.31,93.48,63.03,71.92-12.21,412.01-157.97,450.87-212.05,40.43-56.26,45.45-265.3,14.32-326.29-16.46-32.25-36.75-38.77-70.98-37.16Z"/>
      <path class="cls-1" d="M607,58.58c34.23-1.61,54.52,4.91,70.98,37.16,31.12,60.99,26.1,270.03-14.32,326.29-38.86,54.08-378.94,199.83-450.87,212.05-60.55,10.28-79.96-3.48-93.48-63.03-10.78-47.47-25.83-237.99-16.89-281.41,21.04-102.24,271.74-171.89,360.8-196.29,41.18-11.28,102.97-32.85,143.79-34.77Z"/>
    </g>
  </g>
  <polygon class="cls-3" points="220 778.3 305.9 929.8 904.87 663.75 708.53 582.65 220 778.3"/>
  <polygon class="cls-3" points="539.23 881.43 634.55 990.97 876.41 862.93 725.6 783.26 539.23 881.43"/>
  <polyline class="cls-2" points="209.16 821.67 827 586.63 886.22 610.85 251.84 887.12"/>
  <polyline class="cls-2" points="408.34 919.84 297.37 713.54 400.11 677.98 562.43 831.72 674.39 783.26 465.25 655.21 628.86 595.46 815.23 722.08"/>
</svg>