<?xml version="1.0" encoding="UTF-8"?>
<svg id="Layer_1" data-name="Layer 1" xmlns="http://www.w3.org/2000/svg" viewBox="0 0 1133.86 1133.86">
  <defs>
    <style>
      .cls-1 {
        fill: #a0fbfe;
      }

      .cls-2 {
        fill: #9e9e9e;
      }

      .cls-3 {
        fill: #c7c7c7;
      }
    </style>
  </defs>
  <g>
    <path class="cls-2" d="M794.19,298.14c28.95,4.16,33.7,87.58,27.22,109.84-1.74,5.97-6.64,10.62-12.15,13.21-1.4.66-14.28,4.35-15.06,2.04-2.92-8.64-17.94-15.56-21.96-49.11-3.44-28.7,5.48-55.67,4.91-75.99,5.54.52,11.63-.78,17.05,0Z"/>
    <path class="cls-3" d="M497.84,120.07c92.44-4.92,189.16,6.23,253.76,76.68,20.25,22.08,23.25,50.72,26.35,79.12,4.02,36.8,9.53,73.44,13.33,110.29,9.93,96.45,15.03,193.39,15.13,290.35.05,49.03-1.17,98.06-3.66,147.02-2.7,53.24,2.41,125.55-48.77,156.96-39.88,24.47-86.36,34.92-131.07,46.85-49.66,13.24-100.32,23.39-151.14,31-72.91,10.92-144.77,12.83-218.22,15.04-34.13,1.02-69.4-1-100.26-15.62-34.85-16.51-52.68-50.23-63.34-85.65-38.06-126.46-59.97-261.7-76.14-392.54C1.21,477.5-20.02,339.14,43.3,248.88c36.18-51.58,102.98-66.25,160.28-80.9,71.41-18.26,143.99-31.9,217.16-40.79,24.79-3.01,50.77-5.72,77.1-7.12ZM485.44,180.21c-94.83,7.07-287.53,57.82-364.55,112.96-35.76,25.6-49.69,62.2-54.22,104.98-6.83,64.47,28.46,370.44,64.98,416.85,5.27,6.7,13.13,15.73,20.99,18.81,72.1,28.26,298.08-17.43,378.41-39.35,53.63-14.63,155.87-43.01,184.03-94.53,48.89-89.44,33.99-415.27-41.03-490.09-41.07-40.96-134.01-33.7-188.6-29.63ZM490.71,973.05c39.76-43.31-14.19-113.31-61.45-70-48.14,44.11,24.69,110.04,61.45,70Z"/>
    <path class="cls-1" d="M485.44,180.21c54.59-4.07,147.54-11.32,188.6,29.63,75.01,74.81,89.91,400.64,41.03,490.09-28.16,51.52-130.39,79.9-184.03,94.53-80.32,21.91-306.3,67.6-378.41,39.35-7.86-3.08-15.72-12.11-20.99-18.81-36.51-46.41-71.81-352.38-64.98-416.85,4.53-42.78,18.46-79.38,54.22-104.98,77.02-55.14,269.72-105.89,364.55-112.96Z"/>
    <path class="cls-2" d="M490.71,973.05c-36.77,40.05-109.59-25.88-61.45-70,47.26-43.31,101.22,26.69,61.45,70Z"/>
  </g>
  <g>
    <path class="cls-3" d="M853.01,672.33l203.44-536.51c.51-1.34,1.31-2.6,2.39-3.73l43.44-45.7c2.94-3.1,7.63-4.92,12.62-4.92h0c8.63,0,15.62,5.38,15.62,12.01v62.85c0,1.07-.18,2.13-.55,3.16l-188.49,532c-1.29,3.64-4.72,6.6-9.27,8l-12.65,3.89c-4.02,1.24-7.19,3.7-8.76,6.8l-.64,1.27c-3.28,6.48-13.01,9.47-21.19,6.52l-15.91-5.73c-6.39-2.3-9.98-7.62-8.76-12.96l.43-1.89c.89-3.86-.73-7.81-4.34-10.58l-3.41-2.62c-4.03-3.1-5.55-7.65-3.95-11.86Z"/>
    <polygon class="cls-2" points="1112.48 88.93 1120.44 60.26 1133.86 64.47 1121.32 91.67 1112.48 88.93"/>
  </g>
</svg>