<?xml version="1.0" encoding="UTF-8"?>
<svg id="Layer_1" data-name="Layer 1" xmlns="http://www.w3.org/2000/svg" viewBox="0 0 1133.86 1133.86">
  <defs>
    <style>
      .cls-1 {
        fill: #3f93fe;
      }

      .cls-2 {
        fill: #f795fe;
      }

      .cls-3 {
        fill: #ec61be;
      }
    </style>
  </defs>
  <path class="cls-1" d="M560.16,315.93c3.52,1.71,37.66,47.43,51.36,59.09,89.55,76.15,152.98,102.5,271.84,86.41,45.39-6.14,90.88-24.38,137.29-18.33,58.02,7.57,82.14,61.05,78.57,114.51-4.54,68.07-44.93,106.94-90.48,152.81-35.46,35.71-72.52,70.49-100.61,112.59-55.62,83.36-97.53,280.98-207.92,290.46-5.08.44-11.06.35-16.16,0-81.28-5.55-85.85-74.72-102.35-134.72-1.1-4.01,1.61-10.86-.26-15.73-109.6,9.15-240.18-70.78-296.01-162.1-8.36-13.68-13.47-21.08-16.16-37.72-.78-4.8,5.75-14.78,5.39-16.17,7.62.28,27.27,1.59,32.32,5.39,2.09,1.57,21.6,35.08,29.57,43.17,69.26,70.32,118.37,111.57,220.94,123.79,17.53,2.09,35.55-14.1,56.54,10.87,20.15,49.89,22.62,176.57,112.87,126.39,41.11-22.86,106.92-205.77,143.53-260.58,40.15-60.11,183.3-175.29,185.8-234.91,5-119.11-132.85-56.79-205.19-51.23-125.59,9.64-243.88-54.48-317.82-156.27-1.41-1.94,1.07-9.76-5.39-10.78,2.34-3.09-2.13-21.9,16.16-26.94,2.18-.6,15-.57,16.16,0Z"/>
  <path class="cls-2" d="M931.84,213.55c3.95,4.94,7.81,10.58,10.77,16.17,1.61,3.04,3.91,11.64,5.39,16.17,32.56,99.43-26.44,131.97-64.64,215.55-118.86,16.09-182.29-10.26-271.84-86.41-13.71-11.65-47.84-57.38-51.36-59.09,31.03-45.76,64.3-141.47,97.69-179.8,57.15-65.6,228.45,20.49,273.99,77.41ZM872.55,235.07c-38.07-1.65-57.9-39.07-88.74-48.47-33.33,8.73,48.59,63.12,67.09,67.49,48.73,11.53,59.86-21.1,29.95-56.9-77.92-93.29-281.92-75.2-132.21,51.43,38.62,32.66,188.75,129.69,199.33,35-22.9-7.88-20.6,13.23-34.82,16.27-35.38,7.56-122.89-46.35-150.8-70.38-12.91-11.12-59.58-50.63-35.52-67.49,24.47-17.15,145.01,30.99,145.72,73.04Z"/>
  <path class="cls-2" d="M285.44,800.93c55.83,91.32,186.41,171.25,296.01,162.1,1.87,4.87-.84,11.72.26,15.73-43.43,70.97-47.59,133.69-140.05,150.89-30.25,5.63-34.44,5.62-64.64,0-84.97-15.8-156.48-92.55-183.15-172.44l91.57-156.27Z"/>
  <path class="cls-3" d="M716.61,18.81c92.69,32.84,174.76,105.24,213.02,189.74.5,1.11,1.37,3.94,2.21,5-45.55-56.92-216.85-143.01-273.99-77.41-33.39,38.32-66.66,134.03-97.69,179.8-1.16-.57-13.98-.6-16.16,0-.02-8.98.03-17.96,0-26.95-.24-63.29-21.13-123.95-42.15-182.86-8.23-23.07-42.17-59.37-10.32-76.52,70.57-38.01,151.2-36.97,225.08-10.8Z"/>
  <path class="cls-3" d="M533.23,353.66l-226.24,398.77c-5.05-3.8-24.7-5.11-32.32-5.39-7.96-30.25-23.5-51.31-26.93-86.22-1.2-12.2-1.04-30.78,0-43.11,7.92-94.35,110.92-211.63,195.67-248.83,15.3-6.72,81.78-22.47,84.44-26,6.46,1.02,3.98,8.83,5.39,10.78Z"/>
  <path class="cls-3" d="M269.28,763.2c2.69,16.65,7.8,24.04,16.16,37.72l-91.57,156.27c-27.03.07-53.88-3.41-80.8-5.39-17.19-1.26-37.58,2.31-53.87,0-62.37-8.84,9.34-94.17,32.21-115.97,44.1-42.04,117.49-70.77,177.87-72.64Z"/>
  <path class="cls-2" d="M851.04,509.93l-237.02,420.33c-20.99-24.97-39.01-8.78-56.54-10.87-102.56-12.22-151.67-53.48-220.94-123.79-7.97-8.09-27.48-41.6-29.57-43.17l226.24-398.77c73.94,101.79,192.23,165.92,317.82,156.27Z"/>
  <path class="cls-3" d="M872.55,235.07c-.71-42.05-121.25-90.19-145.72-73.04-24.06,16.86,22.61,56.37,35.52,67.49,27.91,24.03,115.41,77.94,150.8,70.38,14.22-3.04,11.93-24.15,34.82-16.27-10.58,94.69-160.72-2.34-199.33-35-149.71-126.63,54.29-144.72,132.21-51.43,29.9,35.8,18.78,68.43-29.95,56.9-18.49-4.37-100.41-58.76-67.09-67.49,30.84,9.39,50.67,46.81,88.74,48.47Z"/>
</svg>