<?xml version="1.0" encoding="UTF-8"?>
<svg id="Layer_1" data-name="Layer 1" xmlns="http://www.w3.org/2000/svg" viewBox="0 0 1133.86 1133.86">
  <defs>
    <style>
      .cls-1 {
        fill: none;
        stroke: #ec61be;
        stroke-linejoin: round;
        stroke-width: 33px;
      }

      .cls-2 {
        fill: #f795fe;
      }

      .cls-3 {
        fill: #fef6ad;
      }
    </style>
  </defs>
  <g>
    <path class="cls-2" d="M750.4,156.13c1.48.27,2.96.55,4.44.83,169.4,32.23,381.64,160.25,378.99,356.84-.52,38.72-25.94,89.45-66.72,99.59-39.23,9.76-84.65-8.49-121.77-18.29-30.44,124.66-122.6,163.88-237.56,109.68-82.68,216.49-327.98,268.54-473.04,73.85-48.26,22.53-84.1,72.8-142.25,72.4-5.35-5.54-25.21-6.72-32.61-13.1C13.57,798.06-3.1,754.36.47,693.23,17.38,403.37,268.85,185.11,546.62,150.45c67.7-8.45,136.66-6.62,203.78,5.68ZM433.65,509.75c29.05,14.79,202.86-22.61,194.85-57.75-7.04-30.88-190.95,6.15-194.85,57.75Z"/>
    <path class="cls-3" d="M1067.11,613.38c-5.69,10.55-3.19,27.56-6.09,36.56-.78,2.42-4.28,8.05-6.09,12.19-51.24,117.08-165.51,197.99-277.07,252.05-144.36,69.97-312.66,110.1-472.67,78.89-48.57-9.47-96.1-27.11-137.34-54.74-17.32-11.61-37.69-25.66-50.98-41.94-10.6-12.97-13.24-33.83-24.37-45.37,58.15.4,93.98-49.87,142.25-72.4,145.05,194.68,390.36,142.64,473.04-73.85,114.96,54.2,207.12,14.97,237.56-109.68,37.12,9.79,82.54,28.04,121.77,18.29Z"/>
  </g>
  <g>
    <line class="cls-1" y1="513.07" x2="82.87" y2="573.47"/>
    <line class="cls-1" x1="240.77" y1="261.27" x2="329.48" y2="260.22"/>
    <line class="cls-1" x1="764.32" y1="130.06" x2="672.53" y2="192.29"/>
    <line class="cls-1" x1="885.67" y1="324.53" x2="1005.47" y2="344.76"/>
    <line class="cls-1" x1="854.56" y1="513.07" x2="764.32" y2="604.58"/>
    <line class="cls-1" x1="406.48" y1="687.04" x2="515.39" y2="674.6"/>
    <line class="cls-1" x1="240.01" y1="573.47" x2="285.12" y2="649.7"/>
    <line class="cls-1" x1="433.65" y1="371.21" x2="492.05" y2="293.42"/>
    <line class="cls-1" x1="718.42" y1="324.53" x2="782.99" y2="388.32"/>
    <line class="cls-1" x1="174.66" y1="405.54" x2="204.22" y2="486.34"/>
  </g>
</svg>