<?xml version="1.0" encoding="UTF-8"?>
<svg id="Layer_1" data-name="Layer 1" xmlns="http://www.w3.org/2000/svg" viewBox="0 0 1133.86 1133.86">
  <defs>
    <style>
      .cls-1 {
        fill: #fed92a;
      }

      .cls-2 {
        fill: #f795fe;
      }
    </style>
  </defs>
  <path class="cls-2" d="M758.67,172.7c11.57,49.15,18.26,143.89-23.52,175.43,99.17-74.83,264.92-143.12,359.02-19.44,84.62,111.22,25.41,256.03-97.09,305.56-35.38,14.3-138.22,52.58-174.06,27.92,63.61,43.76,111.71,118.53,106.81,197.84-6.64,107.61-116.42,188.71-216.94,131.53-47.18-26.84-81.25-75.27-106.55-122.15-16.38-30.36-24.25-64.34-40.61-94.26,16.32,29.86-21.23,114.63-34.28,142.06-20.79,43.72-49.91,80.45-87.12,110.97-188.87,154.92-501.44-54.11-361.94-282.71,46.1-75.55,125.53-125.18,199.9-169.26-34.2,20.27-121.5-17.73-151.88-33.82-46.09-24.41-91.21-62.39-112.76-110.43-39.55-88.15-10.97-199.59,68.89-255.14,94.87-66,226.09-27.17,296.94,56.07,16.65,19.56,30.43,41.52,41.03,64.91-15.02-33.12-3.78-90.75,8.23-122.93,14.31-38.35,35.86-71.38,70.61-94.33,89.02-58.79,222.99-23.27,252.96,83.04.8,2.82,1.58,5.88,2.35,9.13Z"/>
  <path class="cls-1" d="M427.37,475.45c39.62-64.86,133.58-58.98,153.89-57.71,14.43.9,136.35,8.54,168.31,100.99,16.55,47.88,6.09,110.12-35.27,147.48-50.89,45.97-120.8,29.17-155.49,20.84-23.93-5.75-112.65-27.07-139.46-104.19-2.8-8.05-20.31-61.03,8.02-107.4Z"/>
</svg>