<?xml version="1.0" encoding="UTF-8"?>
<svg id="Layer_1" data-name="Layer 1" xmlns="http://www.w3.org/2000/svg" viewBox="0 0 1133.86 1133.86">
  <defs>
    <style>
      .cls-1 {
        fill: #3f93fe;
      }

      .cls-2 {
        fill: #fed92a;
      }

      .cls-3 {
        fill: #c7c7c7;
      }
    </style>
  </defs>
  <path class="cls-3" d="M923.01,70.82c133.77,209.53,257.23,455.66,190.99,710.7-70.79,272.56-376.29,383.01-631.27,345.11-160.5-23.86-340.73-101.76-421.57-249.86C-16.29,734.84-7.84,560.23,27.06,407.34,56.29,279.29,109.88,157.37,187.24,51.03c56.05-77.04,121.46,42.55,150.7,89.42,36.97,59.26,65.55,122.91,100.83,183,9.66,16.46-2.96,16.56,26.38,19.79,64.97,7.15,127.57-10.91,193.27-.62,2.41.38,5.08.7,7.1-.67,1.95-1.32,2.66-3.81,3.25-6.1,29.96-117.14,83.97-225.95,156.22-322.69,2.98-3.99,6.11-8.07,10.43-10.55,7.11-4.08,16.26-3.02,23.58.67,26.36,13.29,46.61,40.25,64.03,67.53ZM819.55,404.21c-201.22,34.38-166.11,433.41,82.43,399.08,220.19-30.41,185.38-444.84-82.43-399.08ZM291.99,430.61c-197.21,35.22-194.99,419.62,50.4,393.43,230.67-24.61,220.85-441.87-50.4-393.43ZM668.52,792.85c-27.05-15.84-68.53,25.82-88.06,25.06-13.34-.52-37.1-29.66-55.26-18.85-26.14,15.55,25.02,47.52,25.52,61.93.76,21.82-63.55,83.23-36.7,102.85,43.22,31.58,53.42-71.24,82.92-86.19,58.79,164.83,118.77,83.78,26.54-29.79,13.63-1.9,75.38-37.23,45.03-55Z"/>
  <g>
    <path class="cls-2" d="M819.55,404.21c267.81-45.75,302.62,368.67,82.43,399.08-248.54,34.33-283.65-364.71-82.43-399.08ZM825.95,443.65c-123.21,28.95-79.3,331.86,76.2,300.45,136.68-27.61,82.98-337.85-76.2-300.45Z"/>
    <path class="cls-2" d="M291.99,430.61c271.25-48.44,281.07,368.82,50.4,393.43-245.39,26.18-247.61-358.22-50.4-393.43ZM324.97,470.26c-155.57,7.73-167.61,304.21-7.97,308.67,163.96,4.59,176.01-317.02,7.97-308.67Z"/>
  </g>
  <path class="cls-1" d="M668.52,792.85c30.35,17.77-31.41,53.1-45.03,55,92.22,113.57,32.24,194.62-26.54,29.79-29.5,14.95-39.7,117.77-82.92,86.19-26.84-19.61,37.47-81.03,36.7-102.85-.5-14.41-51.66-46.38-25.52-61.93,18.16-10.81,41.92,18.33,55.26,18.85,19.53.77,61.01-40.9,88.06-25.06Z"/>
  <path class="cls-1" d="M825.95,443.65c159.18-37.4,212.88,272.84,76.2,300.45-155.5,31.41-199.41-271.5-76.2-300.45Z"/>
  <path class="cls-1" d="M324.97,470.26c168.04-8.35,155.99,313.26-7.97,308.67-159.64-4.46-147.59-300.94,7.97-308.67Z"/>
</svg>