<?xml version="1.0" encoding="UTF-8"?>
<svg id="Layer_1" data-name="Layer 1" xmlns="http://www.w3.org/2000/svg" viewBox="0 0 1133.86 1133.86">
  <defs>
    <style>
      .cls-1 {
        fill: #3f93fe;
      }

      .cls-2 {
        fill: #f795fe;
      }

      .cls-3 {
        fill: #c7c7c7;
      }
    </style>
  </defs>
  <path class="cls-3" d="M713.62,653.81c-1.05,4.45,21.88,27.15,25.31,31.41,47.15,58.5,94.29,117.01,141.44,175.51,9.43,11.7,18.86,23.4,28.28,35.1,6.72,8.33,9.91,19.93,19.84,25.29,22.71,12.28,61.9-14.03,78.35-28.5,21.67-19.06,37.14-44.42,47.08-71.33,9.89-26.76,26.13-59.73,13.11-88.74-12.23-27.24-48.2-37.05-75.14-28.65-33.55,10.47-55.23,47.46-47.13,85.38-71.12-70.09-142.24-140.19-213.36-210.28-5.93,24.94-11.85,49.87-17.78,74.81Z"/>
  <path class="cls-3" d="M567.09,702.09c6.92.91,28.06,73.21,31.6,82.41,10.96,28.52,21.94,57.03,32.88,85.56,18.29,47.66,38.09,94.63,57.92,141.72,18.14,43.08-8.6,62.39-46.81,74.62-45.65,14.85-91.36,29.57-137.01,44.47-12.45,4.06-31.39,6.17-38-8.4-2.62-5.78-2.72-12.36-2.41-18.69,3.06-62.73,41.26-121.26,111.08-100.6-28.88-103.75-57.76-207.5-86.63-311.26,25.79,3.39,51.58,6.79,77.38,10.18Z"/>
  <path class="cls-2" d="M853.32,148.61c25.87,94.98,1.2,202.32-30.19,292.84-16.34,47.13-37.31,92.46-54.15,139.35-16.67,46.4-23.18,96.49-43.53,141.86-22.98,51.22-103.97,19.38-142.27,9.66-139.1-35.29-282.91-84.45-393.26-179.57C94.56,470.55-13.55,289.97,135.77,200.65c79.31-47.44,192.88-46.13,270.65,3.85,11.86,7.62,47.57,42.78,50.78,43.73,14.37,4.28,10.7-37.83,12.35-44.72,27.42-114.45,149.32-244.15,277.81-191.39,30.5,12.53,55.74,36.06,73.67,63.74,14.9,23,25.39,47.44,32.28,72.75ZM662,224.09c-11.57,2.79-23.78,43.29-35.79,59.03-23.43,30.7-73.15,33.68-52.55,72.4,56.72,39.91,167.39-150.5,88.34-131.43ZM296.85,388.82c-27.56,28.37,44.06,59.17,67.11,62.09,27.7,3.51,102.51-11.38,83.25-48.44-12.86-24.75-50.36,5.81-74.59,5.39-27.27-.47-61.66-33.57-75.77-19.04ZM604.07,456.95c-4.3-5.01,6.4-52.74-37.97-59.25-79.89-11.72-100.02,112.83-44.02,74.81,4.27-2.9,25.1-42.56,36.95-30.2,16.36,17.07-51.99,51.23-8.49,71.09,6.52,2.98,94.41-33.99,60.9,3.67-26.82,30.14-64.45,9.34-75.97,20.98-20.58,79.65,129.2,29.27,128.15-33.71-.84-50.05-55.38-42.53-59.54-47.38Z"/>
  <path class="cls-1" d="M604.07,456.95c4.16,4.85,58.7-2.67,59.54,47.38,1.05,62.97-148.72,113.36-128.15,33.71,11.53-11.64,49.16,9.15,75.97-20.98,33.51-37.66-54.38-.69-60.9-3.67-43.5-19.85,24.85-54.02,8.49-71.09-11.84-12.35-32.68,27.31-36.95,30.2-56,38.03-35.87-86.53,44.02-74.81,44.37,6.51,33.67,54.25,37.97,59.25Z"/>
  <path class="cls-1" d="M662,224.09c79.05-19.07-31.61,171.34-88.34,131.43-20.6-38.71,29.12-41.7,52.55-72.4,12.01-15.74,24.22-56.24,35.79-59.03Z"/>
  <path class="cls-1" d="M296.85,388.82c14.11-14.53,48.5,18.57,75.77,19.04,24.23.42,61.73-30.15,74.59-5.39,19.26,37.07-55.56,51.95-83.25,48.44-23.06-2.92-94.67-33.72-67.11-62.09Z"/>
</svg>