<?xml version="1.0" encoding="UTF-8"?>
<svg id="Layer_1" data-name="Layer 1" xmlns="http://www.w3.org/2000/svg" viewBox="0 0 1133.86 1133.86">
  <defs>
    <style>
      .cls-1 {
        fill: #fee674;
      }
    </style>
  </defs>
  <path class="cls-1" d="M563.81,36.3c.12.51.24,1.03.34,1.55,5.75,27.76,4.06,58.1,7.73,86.38,9.98,76.76,24.81,159.45,64.78,227.05,69.48,117.52,217,161.44,342.2,188.97,14.03,3.09,32.8,8.66,43.05,19.5,31.43,33.26-81.92,52.02-98.12,57.93-193,70.45-291.14,276.81-329.97,465.91-2.48,12.07-2.49,36.44-11.67,45.25-13.26,12.75-25.55-1.32-30.15-14.54-19.45-55.92-30.96-115.05-62.26-166.12-28.48-46.47-64.77-87.65-105.42-123.8-84.39-75.06-184.67-128.83-280.15-188.01-11.78-7.31-43.11-38.98-19.79-49.38,16.19-7.22,42.85,5.97,60.62,6.08,76.68.45,142.12-58.2,186.16-115.52,54.51-70.93,98.43-152.55,130.37-236.06.92-2.41,1.83-4.82,2.72-7.24,13.19-35.77,20.08-74.52,29.03-111.48,4.62-19.08,15.05-109.91,37.18-115.69,4.96-1.3,10.31.03,14.8,2.51,9.78,5.39,15.96,15.81,18.56,26.71Z"/>
  <path class="cls-1" d="M879.64,3.29c20.35,16.55,29.73,90.5,36.95,105.39,12.04,24.82,32.8,44.99,57.35,57.37,18.13,9.13,114.82,24.11,73.99,63.23-7.48,7.17-17.63,10.63-27.19,14.64-37.14,15.56-67.9,41.98-89.96,75.54-15.08,22.93-20.94,49.8-30.3,75.21-7.35,19.95-24.75,55.13-43.08,20.69-18.55-34.85-31.76-72.96-54.93-105.22-26.61-37.06-63.57-53.92-106.34-66.29-37.6-10.88-5.95-29.76,13.23-39.71,43.55-22.57,74.76-60.65,99.32-102.22,12.37-20.93,23.14-42.75,33.97-64.51,5.24-10.53,13.18-35.48,27.13-37.32,3.55-.47,6.83.72,9.86,3.19Z"/>
</svg>