<?xml version="1.0" encoding="UTF-8"?>
<svg id="Layer_1" data-name="Layer 1" xmlns="http://www.w3.org/2000/svg" xmlns:xlink="http://www.w3.org/1999/xlink" viewBox="0 0 1133.86 1133.86">
  <defs>
    <style>
      .cls-1 {
        stroke: #f795fe;
        stroke-linecap: round;
        stroke-linejoin: round;
        stroke-width: 30px;
      }

      .cls-1, .cls-2 {
        fill: none;
      }

      .cls-3 {
        fill: #fed92a;
      }

      .cls-4 {
        fill: #f795fe;
      }

      .cls-5 {
        fill: #fee291;
      }

      .cls-6 {
        clip-path: url(#clippath);
      }

      .cls-7 {
        fill: #ec61be;
      }
    </style>
    <clipPath id="clippath">
      <path class="cls-2" d="M548.32,421.55c-11.06,0-20.31-8.67-20.9-19.84-3.33-63.15,6.51-124.4,29.24-182.04,47.24-119.82,136.98-187.2,186.26-216.69,9.92-5.94,22.79-2.71,28.73,7.22,5.94,9.93,2.71,22.79-7.22,28.73-44.72,26.76-126.11,87.83-168.8,196.12-20.51,52.02-29.38,107.35-26.38,164.47.61,11.55-8.26,21.41-19.81,22.02-.37.02-.75.03-1.12.03Z"/>
    </clipPath>
  </defs>
  <g>
    <polygon class="cls-3" points="306.08 450.24 382.51 886.66 840.16 1133.86 795.18 811 705.35 373.81 306.08 450.24"/>
    <path class="cls-5" d="M303.1,438.39l398.15-129.17c8.07-2.62,16.54,2.71,17.67,11.13l70.16,522.84c1.65,12.31-12.72,20.21-22.23,12.22l-468.31-393.67c-8.17-6.87-5.6-20.05,4.55-23.34Z"/>
    <path class="cls-5" d="M316.63,606.46c99.73,75.74,466.59,334.03,507.4,362.74,2.38,1.67,4.02,4.19,4.59,7.04l11.3,55.96c1.92,9.5-8.17,16.9-16.65,12.2l-486.82-269.45c-2.87-1.59-4.92-4.34-5.61-7.55l-32.21-149.49c-2.22-10.32,9.59-17.84,18-11.45Z"/>
  </g>
  <g>
    <path class="cls-4" d="M623.97,368.11c1.67.21,3.37.52,5.1.93,47.08,11.07,51.2,73.26,42.79,111.72-9.96,45.58-46.88,88.88-95.49,94.79-52.92,6.43-98.91-35.16-114.69-83.04-15.72-47.71,10.36-103.91,67.35-96.32,1.04.14,2.94,12.79,18.13,10.48,16.12-2.45,20.8-18.21,26.52-21.65,16.1-9.66,31.28-19.31,50.27-16.9Z"/>
    <g class="cls-6">
      <path class="cls-1" d="M548.34,400.61c-2.06-39.05-.06-102.59,27.81-173.25,48.41-122.78,142.76-185.6,177.53-206.41"/>
      <polygon class="cls-7" points="490.16 321.79 508.34 459.75 759.67 381.68 700.85 183.01 490.16 321.79"/>
    </g>
  </g>
</svg>