<?xml version="1.0" encoding="UTF-8"?>
<svg id="Layer_1" data-name="Layer 1" xmlns="http://www.w3.org/2000/svg" viewBox="0 0 1133.86 1133.86">
  <defs>
    <style>
      .cls-1 {
        fill: #3f93fe;
      }

      .cls-2 {
        fill: #f795fe;
      }

      .cls-3 {
        fill: #fee674;
      }
    </style>
  </defs>
  <path class="cls-3" d="M1104.25,766.91c-124.72,363.37-639.66,490.4-919.34,227.3C-11.4,809.52-57.65,498.7,82.54,267.44,208.91,58.97,436.55-25.72,650.29,6.72c337.94,51.28,564.24,438.95,453.97,760.19Z"/>
  <g>
    <path class="cls-1" d="M869.19,719.65c-49.67,74.27-154.3,144.09-240.44,167.03-165.65,44.13-327.03-32.44-415.6-175.54-16.38-26.47-62.59-139.96,5.39-92.22,11.02,7.74,71.54,108.41,99.33,134.45,167.48,156.91,416.33,91.05,525.77-96.03,11.2-19.14,21.82-98.63,62.91-65.31,29.16,23.65-21.07,103.24-37.36,127.61Z"/>
    <path class="cls-2" d="M628.76,886.69c86.14-22.95,190.77-92.76,240.44-167.03,197.53,216.48-96.38,360.82-240.44,167.03Z"/>
    <path class="cls-1" d="M179.04,387.14c27.74-2.18,56.47,66.08,85.69,85.35,34.05,22.46,76.3,26.44,115.77,15.52,29.58-8.19,86.53-84.65,111.83-49.4,27.97,39-64.87,96.66-95.49,105.82-65.55,19.6-128.34,7.48-181.55-35.84-22.62-18.41-102.07-116.26-36.24-121.45Z"/>
    <path class="cls-1" d="M860.61,346.6c50.17-15.99,42.26,32.32,29.85,63.62-43.77,110.4-201.14,118.59-284.03,47.84-30.13-25.72-32.16-62.69,12.33-59.8,38.24,2.48,59.46,59.51,143.89,44.37,80.56-14.45,75.24-88.78,97.97-96.02Z"/>
  </g>
</svg>