<?xml version="1.0" encoding="UTF-8"?>
<svg id="Layer_1" data-name="Layer 1" xmlns="http://www.w3.org/2000/svg" viewBox="0 0 1133.86 1133.86">
  <defs>
    <style>
      .cls-1 {
        fill: #3f93fe;
      }

      .cls-2 {
        fill: #a0fbfe;
      }
    </style>
  </defs>
  <path class="cls-2" d="M315.36,298.42c-3.06-3.31-25.94-28.89-20.28-63.27,5.13-31.13,31.53-56.58,65.83-62.4,103.84-24.08,207.68-48.16,311.51-72.24,34.69-6.34,68.97,12.08,82.14,43.31,11.99,28.43,4.26,62.22-19.45,83.58,40.59-17.43,88.07,2.22,104.4,42.55,16.54,40.85-4.66,88.58-46.76,103.72,24.48,15.19,39.54,41.17,38.19,67.73-1.83,35.93-33.44,68.06-75.5,71.6-64.42,9.04-128.84,18.08-193.26,27.12-74.93,14.41-149.87,28.82-224.8,43.23-40.71,13.34-81.95-11.67-89.35-46.83-6.18-29.38,11.96-62.54,44.67-74.93-34.85-13.69-57.15-47.37-55.56-82.75,1.83-40.65,34.85-75.71,78.21-80.4Z"/>
  <path class="cls-2" d="M371.79,755.68c-34.94-10.75-71.58,11.09-78.99,45.15-7.25,33.33,15.79,67.79,51.06,73.59-35,10.51-58.2,44.2-55.53,80.63,2.67,36.36,30.45,66.27,66.54,71.62-3.17,5-16.01,26.5-9.92,52.47,6.53,27.81,32.12,49.44,64.24,53.57,100,3.5,301.42,3.02,411.84-62.38,22.45-13.3,65.31-38.69,62.31-69.16-2.68-27.13-40.26-43.68-50.98-48.06,36.38-2.49,64.36-32.71,64.4-67.16.04-37.1-32.33-68.83-71.69-67.38,20.57-20.9,28.53-50.64,20.05-76.72-10.87-33.44-47.11-55.78-86.25-50.45-129.03,21.43-258.07,42.85-387.1,64.28Z"/>
  <polygon class="cls-1" points="331.93 576.85 373.41 767.07 767.01 704.38 758.17 497 331.93 576.85"/>
  <polyline class="cls-1" points="435.38 163.39 426.52 145.67 405.84 148.86 405.84 31.41 589.55 0 629.2 99.26 609.03 108.51 607.58 126.52 438.98 163.39"/>
</svg>