<?xml version="1.0" encoding="UTF-8"?>
<svg id="Layer_1" data-name="Layer 1" xmlns="http://www.w3.org/2000/svg" viewBox="0 0 1133.86 1133.86">
  <defs>
    <style>
      .cls-1 {
        fill: #3f93fe;
      }

      .cls-2 {
        fill: #a0fbfe;
      }

      .cls-3 {
        fill: #f795fe;
      }

      .cls-4 {
        fill: #c7c7c7;
      }

      .cls-5 {
        fill: #ec61be;
      }
    </style>
  </defs>
  <path class="cls-2" d="M787.98,221.61c4.27,15.86,7.04,32.16,14.1,47.1,13.19,27.91,48.54,26.01,72.79,39.17,71.69,38.92,120.77,90.85,160.38,161.72-.37,3.58.75,8.05,0,11.01-10.69,42.09-84.21,104.33-118.21,137.82-150.07,147.8-353.93,345.42-569.9,374.33-21.96-97.05-44.81-193.94-65.76-291.21,25.91-16.94,31.18-47.22,43.74-73.33,10.81-22.5,5.57-39.12,15.99-46.86,9.36-6.95,7.93,24.29,15.92,28.43,12.52,6.49,24.69,13.6,36.82,20.78,23.78,14.08,47.45,28.59,72.94,39.44,5.09,2.17,11,4.17,15.97,1.73,3.16-1.55,5.25-4.61,7.16-7.57,19.64-30.47,34.58-63.97,44.11-98.95.61-2.22,1.18-4.65.28-6.77-1.4-3.31-5.56-4.26-9.11-4.77-31.65-4.56-63.31-9.12-94.96-13.69-15.53-2.24-31.12-4.26-46.62-6.72-13.18-2.09-10.97-12.89-2.9-21.83,20.81-23.06,173.91-11.03,214.17-19.79l-10.68-113.34c-16.69-11.91-132.56,29.49-160,30.64l115.15-119.13c-10.93-17.6-55.24-65.27-74.19-51.91-4.75,3.35-60.29,81.82-68.49,94.01,1.5-54.04,13.36-105.87,25.78-158.08,1.27-5.33-3.98-11.76-3.76-12.64,13.35-52.46,79.18-110.5,124.94-136.59,58.33-33.25,62.09-34.85,116.8,7.65,34.62,26.89,61.38,62.76,83.41,100.33,12.78,21.8,25.6,43.87,36.33,66.75,3.37,7.18,5.75,14.66,7.8,22.25Z"/>
  <path class="cls-1" d="M753.79,788.52c-54.13-33.84-7.61-194.49,0-220.75,34.47-119,107.34-197.74,154.31-239.52,9.38-8.34,23.29-9.17,33.57-1.97,19.49,13.65,42.99,33.31,65.21,60.72,25.14,31.02,31.81,86,38.31,120.31,26.82,141.47-216.66,327.93-291.4,281.21Z"/>
  <path class="cls-4" d="M1051.79,480.62c31.66,5.37,70.55,50.21,77.39,80.9,12.2,54.76-48.73,107.98-82.1,142.93-37.7,39.5-79.66,74.54-121.48,109.53-37.28,31.19-71.1,65.58-107.65,98.06-62.23,55.3-130.06,104.3-202.13,145.97-72.79,42.09-158.1,63.51-241.67,72.09-93.84,9.63-188.87-1.88-282.8-5.5-19.08-.74-39.06-4.35-53.78-16.52-25.17-20.8-32.1-61.52-34.11-92.28-.87-13.25-.8-28.98,6.68-40.59,2.43-3.77,32.65-24.51,34.23-15.48,4.66,26.55,62.22,29.78,85.47,32.89,67.84,9.09,149.37,9.24,217.29.15,215.96-28.91,419.83-226.53,569.9-374.33,34-33.49,107.52-95.73,118.21-137.82,5.3.58,11.43-.86,16.54,0Z"/>
  <path class="cls-1" d="M341.64,133.68c20.67,2.64,55.88,20.57,77.07,27.53-.11.44,16.84,26.05,33.66,52.22,16.06,24.98,28.47,47.56,32.87,55.56,47.69,86.62,44.21,178.61,44.21,178.61,19.41,81.08-15.29,159.92-77.25,190.12-59.3,28.91-120.4,1.98-130.06-2.46,13.08-44.57,25.87-81.2,32.62-79.95,1.76.32,4.71,4.44,3.4,3.31-39.27-33.77,44.32-116.74,27.05-153.39-9.34-19.83-15.94-11.81-27.05-18.22-15.52-35.59-204.94-103.54-247.72-115.65-1.17-3.98.53-11.36,0-16.52,45.25-54.87,113.69-112.27,187.17-121.15,11.04-1.34,33.07-1.4,44.04,0Z"/>
  <path class="cls-3" d="M396.69,331.93c8.2-12.19,63.74-90.66,68.49-94.01,18.94-13.36,63.26,34.31,74.19,51.91l-115.15,119.13c27.44-1.15,143.31-42.55,160-30.64l10.68,113.34c-40.26,8.76-193.36-3.26-214.17,19.79-3.02,3.34-8.17,16.05-6.06,18.67,5.08,6.29,139.66,16.86,159.18,28.08,5.93,9.04-38.3,110.86-52.95,114.45-20.15,4.95-123.39-70.12-155.78-76.4-19.23-3.73-41.19,23.21-62.39,33.96-57.75,29.31-150.12,47.61-201.69-3.31-23.83-23.52-29.6-55.87.24-77.27,5.12-3.67,12.88-1.51,16.13-2.95,29.72,53.73,108.94,33.11,156.99,16.62,15.84-5.44,130.04-66.1,133.54-72.85,3.78-7.3,1.31-32.04,1.23-42.9-.11-14.21-4.74-46.19-11.01-60.58,20.18-1.92,28.25-39.8,38.53-55.07Z"/>
  <path class="cls-1" d="M281.08,700.9l66.06,291.87c-67.93,9.09-149.46,8.94-217.29-.15-23.25-3.12-80.82-6.34-85.47-32.89-3.63-20.67-5.3-60.53-5.5-82.6-.12-12.57-1-26.13,0-38.55,8.1-100.64,76.17-119.09,165.11-134.96,36.68-6.54,47.09-1.96,77.1-2.72Z"/>
  <path class="cls-3" d="M71.9,359.47c6.44,32.13,41.39,66.29,79.65,89.09.47.28.95.56,1.42.84,20.33,12.14,43.74,16.27,67.14,23.15,9.56,0,19.12,0,28.68.92.38.04.77.07,1.15.11,10.09-1.04,18.35,3.09,27.99-1.04,6.88,1.38,13.77,1.38,21.15,1.29.39-.01.78-.02,1.17-.03,11.27-.32,22.59-.43,34.14.12-8.53,6.4-17.47,12.18-26.67,17.54-.2.12-.41.24-.61.36-.25,1.38-1.63,1.38-3.01,1.38,1.38,2.75-4.13,4.13-2.75,6.88-2.75,0-1.38,2.75-4.13,4.13-5.51,1.38-9.64,4.13-14.93,5.38-.21.08-.42.16-.62.24-3.5,1.37-6.72,3.02-10.64,3.93-.22.03-.44.05-.66.07-.22.01-.45.02-.68.02-1.38,2.75-4.13,4.13-6.45,6.33-.2.06-.4.12-.6.18-2.19.64-4.47,1.09-6.78,1.52-.22.04-.45.08-.67.12-2.58.83-4.99,1.65-7.31,2.46-.21.07-.42.15-.63.22-3.72,1.56-7.85,2.93-10.6,5.69-4.13,0-8.26,1.38-12.62,2.89-.22.08-.44.17-.66.25-7.66,2.89-15.57,5.18-23.9,6.5l-1.38,1.38-1.38,1.38c-3.3-.55-6.83-.22-10.4.37-.89.15-1.79.31-2.68.49-2.01.27-4,.57-5.98.88-.99.16-1.98.32-2.96.48-20.65,3.28-41.3,8.78-61.95,4.66-4.69-.94-9.44-7.95-7.8-9.64,3.38-3.49,18.13-5.21,22.71-6.32,24.75-6.03,49.9-8.08,75-11.84,12-1.8,24.26-4.42,35.59-9.05.37-.15.73-.3,1.09-.45,8.32-2.62,15.2-8.13,22.09-13.64-1.38,0-2.75,0-4.7.16-.2-.03-.4-.05-.6-.08-6.35-.91-16.25-3.57-18.7-3.97-9.05-1.45-18.09-2.92-27.11-4.53-17.63-3.15-35.2-6.84-52.38-11.93-31.46-9.32-62.78-23.93-87.34-46.05-17.82-16.06-33.27-40.19-16.83-62.84,1.55-2.13,17.78-11.86,18.15-9.99Z"/>
  <path class="cls-5" d="M104.93,353.96c37.01,94.02,166.47,93.83,253.22,93.62,3.67,0,7.34,0,11.01,0,.08,10.86,2.56,35.6-1.23,42.9-3.5,6.75-117.7,67.41-133.54,72.85-48.05,16.49-127.27,37.11-156.99-16.62,20.66-9.21,20.37-6.35,38.53-11.01-3.09,16.67,8.42,10.6,18.98,11,70.35,2.68,136.11-30.09,190.21-71.58h-96.34c-51.77,0-145.9-60.78-156.89-115.65,13.12-5.07,18.93-5.77,33.03-5.51Z"/>
  <path class="cls-3" d="M358.15,447.58c-86.75.22-216.21.4-253.22-93.62,79.11,1.48,184.2,56.51,253.22,93.62Z"/>
</svg>