<?xml version="1.0" encoding="UTF-8"?>
<svg id="Layer_1" data-name="Layer 1" xmlns="http://www.w3.org/2000/svg" xmlns:xlink="http://www.w3.org/1999/xlink" viewBox="0 0 1133.86 1133.86">
  <defs>
    <style>
      .cls-1 {
        fill: none;
      }

      .cls-2 {
        fill: #f795fe;
      }

      .cls-3 {
        clip-path: url(#clippath);
      }

      .cls-4 {
        fill: #ec61be;
      }
    </style>
    <clipPath id="clippath">
      <path class="cls-1" d="M1110.14,395.4c-2.12-5.52-46.64,5.27-85.34,15.56-9.38-31.18-19.59-62.03-30.88-92.42-6.75-12.07-18.91-19.52-31.75-22.56-1.83-.43-3.68-.78-5.53-1.03-23.54,3.8-47.26,9.84-70.54,16.02-2.33.62-4.65,1.24-6.97,1.86-1.56.37-3.24.78-4.98,1.2-.32.08-.65.16-.97.24-.25-1.73-.51-3.47-.75-5.2-.45-2.15-.91-4.29-1.39-6.44-2.84-12.87-6.01-25.65-9.18-38.43-2.35-3.7-3.35-7.74-3.89-11.52-.63-2.22-1.21-4.24-1.73-6.06-2.08-7.27-3.22-11.28-3.22-11.28-4.43-15.52-20.36-24.74-36.02-20.85l-77.37,19.21c-15.84,3.93-25.61,19.82-21.99,35.73.14,2.24.29,4.48.44,6.74.15,2.26.31,4.53.47,6.81,2.38,11.91-2.01,23,2.34,34.78-2.05,20.51,4.31,40.35,2.26,60.86.86,5.09,1.76,10.14,2.71,15.16.47,2.51.96,5.01,1.45,7.51,4.93,19.75,8.24,40.16,13.09,60.06-28.49,4.17-56.94,8.75-85.28,14.3-90,17.62-178.93,40.17-267.16,65.13-9.12-23.88-19.99-47.11-33.13-69.29-1.02-1.82-2.05-3.64-3.07-5.46-4.09-7.28-8.2-14.6-12.35-22.14-6.02-18.5-14.74-36.34-23.09-54.88-.73-1.69-1.47-3.38-2.21-5.07-4.45-10.14-9.16-20.22-15.57-29.88-6.37-8.42-15.45-10.45-26.32-7.08-2.58.41-5.14.87-7.71,1.38-28.17,5.59-55.47,16.7-84.01,19.29-11.11,7.04-18.85,16.11-21.56,28.21,3.01,28.19,6.04,56.37,10.2,84.51l-44.76,11.11c-7.86,1.95-14.83,5.66-20.59,10.61-1.92,1.65-3.71,3.44-5.35,5.34-11.66,12.05-13.37,28.18-11.04,43.32,2.92,13.2,5.86,26.49,8.78,39.83.58,2.67,1.17,5.34,1.75,8.01,1.85,8.15,3.67,16.32,5.46,24.5-17.87,4.17-35.81,8.08-53.74,11.95-9.55,2.06-19.1,4.11-28.65,6.2-4.58,1-9.16,2.01-13.73,3.02-3.97.88-6.18.7-6.97,2.41-.37.8-.42,2.01-.2,3.93,2.16,18.6,7.57,37.3,11.47,55.61.98,4.58,11.88,54.69,10.93,54.92,34.74-8.63,69.7-16.38,104.76-23.69,5.46,26.9,10.9,53.83,16.53,80.71,3.35,7.74,7.03,16.82,14.93,22.11,1.69,1.4,3.47,2.69,5.33,3.86,11.13,7,25,9.66,38.83,6.22l43-10.68c4.02,19.12,7.48,38.75,13.11,57.01,4.35,11.77,13.42,19.52,25.85,23.58,7.48-.07,14.86-.56,22.16-1.35,2.43-.26,4.86-.56,7.27-.88,35.81-5.4,70.12-16.78,104.38-27.07,2.01-.62,3.93-1.44,5.74-2.45,8.12-6.35,14.85-13.73,17.9-24.49-.8-10.16-1.77-20.37-2.9-30.59-.22-2.04-.46-4.09-.69-6.13-5.03-38.27-11.7-76.61-14.32-115.96-1.57-11.14-3.39-22.33-5.3-33.55,92.06-20.15,184.99-41.48,276.36-65.18,27.87-7.23,55.9-15.17,83.95-23.46,2.95,10.62,5.61,21.3,8.26,31.99-.34,4.37.32,7.06-.02,11.43l7.68,30.95c12.4,26.92,18.07,55.51,29.99,81.57.59,1.46,1.17,2.91,1.76,4.36.43,1.9,3.02,12.4,13.51,18.85,6.61,4.06,14.78,5.58,22.92,3.56l103.1-25.6c16.45-4.08,26.24-20.99,21.59-37.29,0,0-7.6-26.62-19.19-67.24-.27-.96-.56-1.95-.84-2.93.79-.26,1.56-.52,2.37-.78,27.6-9.11,66.23-21.87,66.23-21.87,4.46-1.47,8.52-3.6,12.11-6.24,1.8-1.32,3.47-2.77,5.03-4.33,10.18-10.22,13.9-24,12.24-36.44-4.88-21.09-9.93-42.14-15.22-63.11,27.35-7.06,54.97-12.58,82.93-15.12-9.36-31.95-11.66-64.23-23.72-95.52Z"/>
    </clipPath>
  </defs>
  <g class="cls-3">
    <path class="cls-2" d="M1110.14,395.4c-2.12-5.52-46.64,5.27-85.34,15.56-9.38-31.18-19.59-62.03-30.88-92.42-6.75-12.07-18.91-19.52-31.75-22.56-1.83-.43-3.68-.78-5.53-1.03-23.54,3.8-47.26,9.84-70.54,16.02-2.33.62-4.65,1.24-6.97,1.86-1.56.37-3.24.78-4.98,1.2-.32.08-.65.16-.97.24-.25-1.73-.51-3.47-.75-5.2-.45-2.15-.91-4.29-1.39-6.44-2.84-12.87-6.01-25.65-9.18-38.43-2.35-3.7-3.35-7.74-3.89-11.52-.63-2.22-1.21-4.24-1.73-6.06-2.08-7.27-3.22-11.28-3.22-11.28-4.43-15.52-20.36-24.74-36.02-20.85l-77.37,19.21c-15.84,3.93-25.61,19.82-21.99,35.73.14,2.24.29,4.48.44,6.74.15,2.26.31,4.53.47,6.81,2.38,11.91-2.01,23,2.34,34.78-2.05,20.51,4.31,40.35,2.26,60.86.86,5.09,1.76,10.14,2.71,15.16.47,2.51.96,5.01,1.45,7.51,4.93,19.75,8.24,40.16,13.09,60.06-28.49,4.17-56.94,8.75-85.28,14.3-90,17.62-178.93,40.17-267.16,65.13-9.12-23.88-19.99-47.11-33.13-69.29-1.02-1.82-2.05-3.64-3.07-5.46-4.09-7.28-8.2-14.6-12.35-22.14-6.02-18.5-14.74-36.34-23.09-54.88-.73-1.69-1.47-3.38-2.21-5.07-4.45-10.14-9.16-20.22-15.57-29.88-6.37-8.42-15.45-10.45-26.32-7.08-2.58.41-5.14.87-7.71,1.38-28.17,5.59-55.47,16.7-84.01,19.29-11.11,7.04-18.85,16.11-21.56,28.21,3.01,28.19,6.04,56.37,10.2,84.51l-44.76,11.11c-7.86,1.95-14.83,5.66-20.59,10.61-1.92,1.65-3.71,3.44-5.35,5.34-11.66,12.05-13.37,28.18-11.04,43.32,2.92,13.2,5.86,26.49,8.78,39.83.58,2.67,1.17,5.34,1.75,8.01,1.85,8.15,3.67,16.32,5.46,24.5-17.87,4.17-35.81,8.08-53.74,11.95-9.55,2.06-19.1,4.11-28.65,6.2-4.58,1-9.16,2.01-13.73,3.02-3.97.88-6.18.7-6.97,2.41-.37.8-.42,2.01-.2,3.93,2.16,18.6,7.57,37.3,11.47,55.61.98,4.58,11.88,54.69,10.93,54.92,34.74-8.63,69.7-16.38,104.76-23.69,5.46,26.9,10.9,53.83,16.53,80.71,3.35,7.74,7.03,16.82,14.93,22.11,1.69,1.4,3.47,2.69,5.33,3.86,11.13,7,25,9.66,38.83,6.22l43-10.68c4.02,19.12,7.48,38.75,13.11,57.01,4.35,11.77,13.42,19.52,25.85,23.58,7.48-.07,14.86-.56,22.16-1.35,2.43-.26,4.86-.56,7.27-.88,35.81-5.4,70.12-16.78,104.38-27.07,2.01-.62,3.93-1.44,5.74-2.45,8.12-6.35,14.85-13.73,17.9-24.49-.8-10.16-1.77-20.37-2.9-30.59-.22-2.04-.46-4.09-.69-6.13-5.03-38.27-11.7-76.61-14.32-115.96-1.57-11.14-3.39-22.33-5.3-33.55,92.06-20.15,184.99-41.48,276.36-65.18,27.87-7.23,55.9-15.17,83.95-23.46,2.95,10.62,5.61,21.3,8.26,31.99-.34,4.37.32,7.06-.02,11.43l7.68,30.95c12.4,26.92,18.07,55.51,29.99,81.57.59,1.46,1.17,2.91,1.76,4.36.43,1.9,3.02,12.4,13.51,18.85,6.61,4.06,14.78,5.58,22.92,3.56l103.1-25.6c16.45-4.08,26.24-20.99,21.59-37.29,0,0-7.6-26.62-19.19-67.24-.27-.96-.56-1.95-.84-2.93.79-.26,1.56-.52,2.37-.78,27.6-9.11,66.23-21.87,66.23-21.87,4.46-1.47,8.52-3.6,12.11-6.24,1.8-1.32,3.47-2.77,5.03-4.33,10.18-10.22,13.9-24,12.24-36.44-4.88-21.09-9.93-42.14-15.22-63.11,27.35-7.06,54.97-12.58,82.93-15.12-9.36-31.95-11.66-64.23-23.72-95.52Z"/>
    <rect class="cls-4" x="401.15" y="524.92" width="86.54" height="157.15" transform="translate(-132.33 124.88) rotate(-13.94)"/>
    <polygon class="cls-4" points="780.36 592.64 692.06 622.98 654.19 470.46 736.12 450.12 780.36 592.64"/>
    <rect class="cls-4" x="1037.09" y="372.71" width="40.78" height="157.15" transform="translate(-77.59 268.12) rotate(-13.94)"/>
    <polygon class="cls-4" points="130.57 753.64 95.34 762.39 57.48 609.87 103.42 623.1 130.57 753.64"/>
  </g>
</svg>