<?xml version="1.0" encoding="UTF-8"?>
<svg id="Layer_1" data-name="Layer 1" xmlns="http://www.w3.org/2000/svg" viewBox="0 0 1133.86 1133.86">
  <defs>
    <style>
      .cls-1 {
        fill: #f795fe;
      }

      .cls-2 {
        fill: #c7c7c7;
      }

      .cls-3 {
        fill: #fee291;
      }

      .cls-4 {
        fill: #ec61be;
      }
    </style>
  </defs>
  <path class="cls-1" d="M1055.22,559.13c4.9,22.5,4.15,36.59,6.4,57.58,1.63,15.27,5.5,29.02,6.4,44.79,2.2,38.82,2.4,89.24,0,127.96-1.2,19.27-.89,38.89-6.4,57.58-1.4,4.76-4.76,16.07-6.4,19.19-26.8,51.09-120.26,87.53-172.68,102.37v-147.16c47.88-28.83,43.4-130.4,38.21-182.19-3.5-34.9-16.93-83.95-57.4-92.93v-140.76c120.18.32,166.12,35.37,191.87,153.55Z"/>
  <path class="cls-4" d="M863.35,405.58v140.76c-15.64-3.47-40.34,2.42-57.56,0-3.04-45-2.46-99.48-6.4-140.76,21.28.04,42.68-.06,63.96,0Z"/>
  <path class="cls-4" d="M882.54,821.46v147.16c-18.77,5.31-38.08,10.52-57.56,12.8.96-39.65-5.24-97.37-6.4-140.76,17.45-2.67,49.75-10.64,63.96-19.19Z"/>
  <path class="cls-1" d="M823.84,1029.08c-.98,17.45.21,35.81-16.41,46.67-24.81,16.22-71.34,10.68-99.95,13.02-92.93,7.58-187.74,16.49-281.37,24.87-47.39,4.24-94.8,8.37-142.25,12.17-39.64,3.17-95.73,17.66-132.7-2.32-16.86-9.12-20.22-35.17-22.79-52.02-15.02-98.59-28.23-197.48-43.97-295.96-13.71-85.77-23.22-172.6-19.43-259.57,6.99-160.59,172.08-251.14,313.54-270.56,12.25-1.7,24.55-3.07,36.88-4.14,50.18-4.37,100.79-3.69,150.83,2,59.66,6.8,127.32,15.93,176.97,51.63,33.17,23.85,52.64,62.62,59.49,102.27,15.04,87.14,15.63,175.52,15.63,263.66.02,122.7,12.35,245.73,5.53,368.26Z"/>
  <path class="cls-3" d="M449.53,314.78c62.95-4.67,288.99-3.58,269.96,103.26-10.41,58.45-249.91,96.5-303.58,99.84-47.42,2.96-299.39,12.7-275.98-77.19,18.11-69.55,245.44-121.14,309.6-125.9Z"/>
  <path class="cls-2" d="M549.62,395.84c32.17-117.4,64.33-234.8,96.5-352.21,1.15-4.19,3.06-8.13,5.68-11.59,19.14-25.3,51.58-37.27,82.42-29.89,6.94,1.66,13.51,4.23,19.6,7.58,31.34,17.25,42.04,57.21,24.8,88.56-54.55,99.18-109.1,198.36-163.65,297.54h-65.34Z"/>
</svg>