<?xml version="1.0" encoding="UTF-8"?>
<svg id="Layer_1" data-name="Layer 1" xmlns="http://www.w3.org/2000/svg" viewBox="0 0 1133.86 1133.86">
  <defs>
    <style>
      .cls-1 {
        fill: #fed92a;
      }

      .cls-2 {
        fill: #8df041;
      }
    </style>
  </defs>
  <path class="cls-2" d="M1011.51,15.98c26.85-12.54,58.39-30.74,75.38,4.7,42.09,87.79,1.34,181.52-63.17,245.74-63.95,63.67-146.89,97.22-232.21,121.59-86.36,24.66-156.67,87.84-209.71,158.62-5.99,8.18-11.7,16.61-17.07,25.23-21.51,34.51-37.66,72.16-47.02,112.61-.46,1.97.42,4.25,0,6.24,0,0-62.06,6.21-62.38,6.24-7.27.73,19.53-115.71,24.85-128.54,2.2-5.3,24.55-64.71,25.01-64.85-186.59,57.98-322.83-4.25-408.76-174.47-16.96-33.59-33.2-67.71-45.4-103.36-6.94-20.3-33.1-86.25-14.92-103.97,15.26-14.87,47.74-24.22,67.54-31.28,31.82-11.35,65.07-18.64,98.74-21.49,119.49-10.1,207.79,38.23,243.74,58.55,43.62,24.65,78.06,53.61,104.72,81.26,8.89,9.22,16.91,18.29,24.05,27.14,12.48,16.65,24.96,32.25,31.2,52.53.78-9.36,2.34-18.52,4.57-27.48,33.8-135.67,166.76-216.81,298.26-227.9,31.43-2.65,63.82-2.63,93.86-13.44,2.79-1,5.7-2.26,8.71-3.67Z"/>
  <path class="cls-1" d="M255.08,736.7l461.48-91.03c13.93-2.75,26.47,8.93,24.72,23.02l-49.7,399.78c-1.03,8.31-6.94,15.19-14.99,17.48l-165.91,47.11c-8.58,2.44-17.77-.86-22.84-8.2l-245.87-355.86c-8.53-12.35-1.61-29.39,13.11-32.3Z"/>
</svg>