<?xml version="1.0" encoding="UTF-8"?>
<svg id="Layer_1" data-name="Layer 1" xmlns="http://www.w3.org/2000/svg" xmlns:xlink="http://www.w3.org/1999/xlink" viewBox="0 0 1133.86 1133.86">
  <defs>
    <style>
      .cls-1 {
        fill: #a0fbfe;
      }

      .cls-2, .cls-3 {
        fill: none;
      }

      .cls-4 {
        fill: #f795fe;
      }

      .cls-3 {
        stroke: #ec61be;
        stroke-miterlimit: 10;
        stroke-width: 27px;
      }

      .cls-5 {
        fill: #fee291;
      }

      .cls-6 {
        clip-path: url(#clippath);
      }
    </style>
    <clipPath id="clippath">
      <polygon class="cls-2" points="582.55 886.56 308.19 229.44 541.74 0 606.99 63.2 462.54 258.2 659.35 830.4 582.55 886.56"/>
    </clipPath>
  </defs>
  <path class="cls-1" d="M227.1,532.01l246.55,588.94c4.1,9.79,14.85,14.99,25.07,12.12l330.55-92.9c10.48-2.95,16.98-13.41,14.97-24.11l-118.18-630.13c-2.29-12.21-14.62-19.78-26.55-16.3l-458.92,134.09c-12.04,3.52-18.33,16.72-13.49,28.29Z"/>
  <g class="cls-6">
    <polygon class="cls-4" points="582.55 886.56 308.19 229.44 541.74 0 606.99 63.2 462.54 258.2 659.35 830.4 582.55 886.56"/>
    <polyline class="cls-3" points="364.87 125.77 605.36 276.96 308.19 183.9 248.11 212.44 290.24 267.81 507.06 274.73 514.28 306.55 328.76 321.98"/>
  </g>
  <path class="cls-5" d="M651.65,767.81c11.21-15.29,62.01-91.68,85.42-63.26,17.4,21.13,29.65,232.36,46.62,273.37.7,9.82-.13,22.86-7.22,30.28-8.33,8.73-208.49,74.99-228.33,78.15-10.06,1.6-16.85,5.08-26.54-2.21-8.29-6.23-88.38-171.29-92.5-185.64-15.21-52.97,50.39-40.11,81.04-35.21,74.08,11.84,104.76-45.36,141.52-95.47Z"/>
  <path class="cls-1" d="M150.54,602.94l11.86-113.16c.93-8.85,7.11-16.26,15.65-18.76l531.79-155.81c8.65-2.54,17.98.48,23.5,7.61l86.36,111.39c9.7,12.51,3.35,30.87-12.01,34.71l-630.02,157.58c-14.77,3.69-28.72-8.42-27.13-23.56Z"/>
</svg>