<?xml version="1.0" encoding="UTF-8"?>
<svg id="Layer_1" data-name="Layer 1" xmlns="http://www.w3.org/2000/svg" viewBox="0 0 1133.86 1133.86">
  <defs>
    <style>
      .cls-1 {
        fill: #f795fe;
      }

      .cls-2 {
        fill: #ec61be;
      }
    </style>
  </defs>
  <path class="cls-1" d="M234.8,221.28c3.92.61,8.6-.72,12.4,0,153.62,29.2,542.92,198.34,685.96,278,79.06,44.03,194.93,139.55,200.41,236.67.34,6.01.44,12.61,0,18.6-7.19,97.11-95.36,161.06-189.06,161.64-156,.96-432.67-159.19-577.32-228.96-107.47-51.84-316.29-106.9-355.52-224.11-1.86-5.55-5.24-13.91-6.2-18.6-31.73-155.93,78.89-246.49,229.34-223.23ZM127.67,302.8c-38.51,9.28,4.81,58.71,32.95,39.59,20.32-13.81-13.21-44.34-32.95-39.59ZM214.06,345.87c-34.93,12.47,27.49,64.2,45.93,40.23,19.73-25.66-30.34-45.8-45.93-40.23ZM462.31,377.5c-40.35,5.84-123.09,190.25-97.81,231.8,15.99,26.27,312.29,137.58,347.37,123.41,28.31-11.43,98.6-170.14,83.86-201.41-13.73-29.11-295.63-159.27-333.42-153.8ZM284.38,382.54c-15.93,16.21,35.7,65.61,52.92,30.98,15.62-31.42-48.17-35.82-52.92-30.98ZM65.8,420.67c-31.94,8.67-9.59,39.86,17.72,42.39,52.78,4.89,18.45-52.21-17.72-42.39ZM202.84,470.16c-3.27-5.63-54.37-26.22-55.08,2.26-.83,33.46,78.34,37.82,55.08-2.26ZM263.63,500.88c-39.18,14.63,24.83,68.37,42.82,30.5,8.56-18.02-28.63-35.8-42.82-30.5ZM852.59,606.51c-36.21,13.42,27.16,62.23,42.53,30.24,12.05-25.07-23.68-34.55-42.53-30.24ZM926.92,637.35c-34.21,20.84,28.27,57.84,42.78,36.98,13.39-30.26-18.07-37.86-42.78-36.98ZM1001.24,674.5c-46.12,17.34,50.92,80.57,45.78,27.62-1.58-16.32-30.09-33.52-45.78-27.62ZM796.72,724.3c-21.15,8.27-10.87,37.38,12.95,41.57,47.26,8.3,25.89-56.75-12.95-41.57ZM868.64,796.4c45.87,44.19,90.83-25.29,9.03-34.79-15.62,5.43-21.07,23.2-9.03,34.79ZM957.64,798.31c-27.96,8.18,2.06,61.57,33.57,40.15,21.07-14.33-15.8-45.35-33.57-40.15Z"/>
  <path class="cls-2" d="M462.31,377.5c37.8-5.47,319.7,124.69,333.42,153.8,14.74,31.27-55.54,189.98-83.86,201.41-35.08,14.16-331.39-97.14-347.37-123.41-25.28-41.55,57.46-225.96,97.81-231.8Z"/>
  <path class="cls-2" d="M868.64,796.4c-12.03-11.59-6.58-29.36,9.03-34.79,81.79,9.5,36.83,78.98-9.03,34.79Z"/>
  <path class="cls-2" d="M214.06,345.87c15.6-5.57,65.66,14.57,45.93,40.23-18.44,23.98-80.86-27.75-45.93-40.23Z"/>
  <path class="cls-2" d="M1001.24,674.5c15.68-5.9,44.2,11.31,45.78,27.62,5.14,52.94-91.9-10.28-45.78-27.62Z"/>
  <path class="cls-2" d="M65.8,420.67c36.17-9.82,70.5,47.27,17.72,42.39-27.31-2.53-49.66-33.72-17.72-42.39Z"/>
  <path class="cls-2" d="M284.38,382.54c4.75-4.83,68.54-.44,52.92,30.98-17.22,34.63-68.85-14.77-52.92-30.98Z"/>
  <path class="cls-2" d="M926.92,637.35c24.72-.89,56.17,6.72,42.78,36.98-14.51,20.87-76.99-16.13-42.78-36.98Z"/>
  <path class="cls-2" d="M202.84,470.16c23.26,40.08-55.91,35.72-55.08,2.26.71-28.48,51.81-7.89,55.08-2.26Z"/>
  <path class="cls-2" d="M263.63,500.88c14.19-5.3,51.39,12.48,42.82,30.5-17.99,37.87-82-15.87-42.82-30.5Z"/>
  <path class="cls-2" d="M852.59,606.51c18.85-4.31,54.58,5.17,42.53,30.24-15.37,32-78.75-16.82-42.53-30.24Z"/>
  <path class="cls-2" d="M796.72,724.3c38.84-15.18,60.21,49.88,12.95,41.57-23.82-4.19-34.1-33.31-12.95-41.57Z"/>
  <path class="cls-2" d="M127.67,302.8c19.74-4.75,53.27,25.79,32.95,39.59-28.14,19.12-71.46-30.32-32.95-39.59Z"/>
  <path class="cls-2" d="M957.64,798.31c17.77-5.2,54.64,25.82,33.57,40.15-31.51,21.42-61.53-31.96-33.57-40.15Z"/>
</svg>