<?xml version="1.0" encoding="UTF-8"?>
<svg id="Layer_1" data-name="Layer 1" xmlns="http://www.w3.org/2000/svg" viewBox="0 0 1133.86 1133.86">
  <defs>
    <style>
      .cls-1 {
        fill: #f795fe;
      }

      .cls-2 {
        fill: #fef6ad;
      }
    </style>
  </defs>
  <path class="cls-2" d="M994.98,563.96c.67,9.52-.97,19.46,0,28.9.77,7.55,4.25,15.27,4.82,24.09.41,6.37-.46,12.9,0,19.27,1.41,19.29,3.66,38.7,4.82,57.81.39,6.38-.4,12.89,0,19.27,1.22,19.15,3.88,39.36,4.82,57.81.32,6.39-.3,12.87,0,19.27.85,17.97,4.31,37.55,4.82,52.99.7,21.62,2.12,47.12-2.81,68.03-6.98,5.89-152.21,8.14-175.37,9.05-4.8.19-9.64-.17-14.45,0-46.57,1.69-93.06,3.66-139.65,4.82-24,.6-48.23-.5-72.23,0-17.05.36-37.51,4.5-57.79,4.82-17.23.27-67.28,3.58-79.24.32-5.82-1.58-1.3-12.74-2.62-14.77v-62.63c0-16.01-.3-32.17,0-48.17.36-19.21-.41-38.6,0-57.81.44-20.35,6.91-39.13,4.82-62.63-.42-4.76.42-9.7.03-14.46-35.54-1.89-70.74,1.61-105.97,4.83-9.37.85-19.68-1.12-28.89,0-9.32,1.13-18.82,5.66-28.67,5.16-1.06,3.04-.06,6.21-.23,9.3-.46,8.4,4.03,19.4,4.82,28.9.26,3.17-.22,6.45,0,9.63.22,3.18-.23,6.45,0,9.63,1.13,15.84,3.48,32.07,4.82,48.17.26,3.17-.27,6.46,0,9.63.96,11.31,3.82,22.19,4.82,33.72,1.26,14.69,3.51,28.91,4.82,43.36.43,4.75-.41,9.7,0,14.45,1.27,14.78,3.22,28.77,4.82,43.36-6.54,9.5-9.08,13.02-21.35,14.79-18.51,2.67-165.99-3.46-170.56-10.71-2.77-9.12.61-19.05-.71-28.17-.45-3.1.36-6.51,0-9.63-1.91-16.37-3.66-31.59-4.82-48.17-1.55-22.24-3.56-45.4-4.82-67.44-.64-11.16.52-22.54,0-33.72-1.05-22.34-3.95-45.69-4.82-67.44-.45-11.2.4-22.52,0-33.72-.17-4.8,0-9.65,0-14.45v-38.54l401.99-317.86c152.89,88.12,300.04,185.89,452.09,275.36,7.02,4.13,11.28,12.76,12.74,13.59Z"/>
  <path class="cls-1" d="M768.65,274.91c53.19,23.22,114.44,55.59,168.55,81.9,49.68,24.15,134.18,59.26,176.7,85.78,6,3.74,18.79,11.81,19.95,18.53,1.25,7.28-70.66,122.54-77.16,126.05-7.64,4.12-51.83-17.57-61.7-23.21-1.46-.83-5.72-9.47-12.74-13.59-152.05-89.47-299.19-187.25-452.09-275.36l-401.99,317.86c-22.79,3.51-40.2,42.25-62.61,31.46-6-2.89-70.34-80.72-65.27-94.22L518.15,190.2c6.68-3.66,12.76-.94,19.44-.02,41.28,5.65,185.98,65.06,231.06,84.74Z"/>
</svg>