<svg width="41" height="41" viewBox="0 0 41 41" fill="none" xmlns="http://www.w3.org/2000/svg">
<path fill-rule="evenodd" clip-rule="evenodd" d="M20.3368 40.6736C31.5694 40.6736 40.6736 31.5693 40.6736 20.3368C40.6736 9.10429 31.5694 0 20.3368 0C9.10419 0 0 9.10667 0 20.3368C0 31.5669 9.10419 40.6736 20.3368 40.6736ZM23.8164 18.5049C25.1365 17.9621 25.94 17.13 26.4685 16.4986C27.4777 15.3412 27.889 13.923 27.889 12.579C27.889 11.4956 27.5901 9.32911 25.6865 7.8392C24.3784 6.8299 23.221 6.34452 20.4588 6.34452H19.0599C19.0144 6.34214 18.9738 6.34214 18.9212 6.34214H13.1506V33.5758H29.6156V28.3482C29.6156 23.3452 28.0038 19.9829 23.8164 18.5049ZM22.9172 32.0716H25.8874L25.885 27.8388C25.885 22.207 24.0818 19.1315 19.4544 19.1315V17.7732H19.4855C21.2145 17.7732 22.4438 16.9052 23.1898 15.9725C24.0388 14.9418 24.2182 13.9708 24.254 13.1051H19.4903V11.7636H24.2158C24.0938 10.8548 23.7495 9.95073 23.185 9.26933C22.1018 7.92519 20.5712 7.70057 19.562 7.70057L16.8645 7.69799V32.0811H19.4903V22.9818H22.9172V32.0716Z" fill="white"/>
</svg>
