<svg width="41" height="41" viewBox="0 0 41 41" fill="none" xmlns="http://www.w3.org/2000/svg">
<path d="M28.6511 12.1737C28.6592 12.1737 28.67 12.1737 28.6808 12.1737C28.963 12.1737 29.225 12.2615 29.4397 12.4127L29.4357 12.41C29.5923 12.5464 29.6977 12.7382 29.7233 12.9542V12.9583C29.7503 13.123 29.7652 13.3121 29.7652 13.5052C29.7652 13.593 29.7625 13.6794 29.7557 13.7658V13.7537C29.4519 16.9527 28.1339 24.7107 27.4641 28.2919C27.1805 29.8084 26.6228 30.3161 26.0827 30.3647C24.9092 30.4741 24.0179 29.5896 22.8809 28.8442C21.1011 27.6761 20.0951 26.9496 18.3679 25.8112C16.3707 24.4973 17.6657 23.7722 18.8028 22.5919C19.1012 22.2813 24.2745 17.5753 24.3758 17.1485C24.3812 17.1229 24.3839 17.0945 24.3839 17.0648C24.3839 16.9595 24.3447 16.8636 24.2813 16.7907C24.211 16.7448 24.1233 16.7191 24.0314 16.7191C23.9707 16.7191 23.9126 16.7313 23.8586 16.7515L23.8613 16.7502C23.683 16.7907 20.84 18.6695 15.3323 22.3867C14.7313 22.8607 13.9724 23.1604 13.146 23.1956H13.1379C11.9671 23.0538 10.9044 22.7931 9.89562 22.4218L9.99555 22.4542C8.72889 22.041 7.72285 21.8236 7.80927 21.1241C7.85519 20.7604 8.35663 20.3881 9.3136 20.0073C15.2085 17.4389 19.1395 15.7459 21.1065 14.9285C23.2766 13.7766 25.7923 12.8287 28.4377 12.2142L28.6498 12.1724L28.6511 12.1737ZM20.2895 0C9.07864 0.0270077 0 9.12185 0 20.3368C0 31.5679 9.10429 40.6736 20.3368 40.6736C31.5693 40.6736 40.6736 31.5693 40.6736 20.3368C40.6736 9.12185 31.5949 0.0270077 20.3868 0H20.3841C20.3525 0 20.321 0 20.2895 0Z" fill="white"/>
</svg>
