<svg width="41" height="41" viewBox="0 0 41 41" fill="none" xmlns="http://www.w3.org/2000/svg">
<path fill-rule="evenodd" clip-rule="evenodd" d="M2.85917 2.85907C0 5.71833 0 10.3199 0 19.5233V21.1503C0 30.3537 0 34.9552 2.85917 37.8145C5.71823 40.6736 10.3199 40.6736 19.5233 40.6736H21.1503C30.3537 40.6736 34.9553 40.6736 37.8144 37.8145C40.6736 34.9552 40.6736 30.3537 40.6736 21.1503V19.5233C40.6736 10.3199 40.6736 5.71833 37.8144 2.85907C34.9553 0 30.3537 0 21.1503 0H19.5233C10.3199 0 5.71823 0 2.85917 2.85907ZM21.6417 29.3021C12.3715 29.3021 7.08402 22.9468 6.86367 12.3717H11.5072C11.6597 20.1336 15.083 23.4213 17.7946 24.0993V12.3717H22.1671V19.0659C24.8448 18.7778 27.6577 15.7273 28.6068 12.3717H32.9794C32.2506 16.5068 29.2001 19.5573 27.0309 20.8114C29.2001 21.8283 32.6745 24.489 33.9964 29.3021H29.1832C28.1494 26.0821 25.5735 23.5909 22.1671 23.2519V29.3021H21.6417Z" fill="white"/>
</svg>
